<svg height="480" version="1.1" width="640" xmlns="http://www.w3.org/2000/svg" style="overflow: hidden; position: relative; top: -0.3125px;"><desc style="-webkit-tap-highlight-color: rgba(0, 0, 0, 0);">Created with Raphaël 2.0.1</desc><defs style="-webkit-tap-highlight-color: rgba(0, 0, 0, 0);"></defs><rect x="0" y="0" width="640" height="480" r="0" rx="0" ry="0" fill="#ffffff" stroke="none" style="-webkit-tap-highlight-color: rgba(0, 0, 0, 0);"></rect><rect x="257" y="255" width="784" height="125" r="5" rx="5" ry="5" fill="#5e5e5e" stroke="none" transform="matrix(1,0,0,1,-392,-62.5)" stroke-width="0" opacity="0.2" style="-webkit-tap-highlight-color: rgba(0, 0, 0, 0); opacity: 0.2;"></rect><rect x="443" y="325" width="137" height="235" r="5" rx="5" ry="5" fill="#5e5e5e" stroke="none" transform="matrix(1,0,0,1,-68.5,-117.5)" stroke-width="0" opacity="0.2" style="-webkit-tap-highlight-color: rgba(0, 0, 0, 0); opacity: 0.2;"></rect><rect x="276" y="181" width="216" height="67" r="5" rx="5" ry="5" fill="#5e5e5e" stroke="none" transform="matrix(1,0,0,1,-108,-33.5)" stroke-width="0" opacity="0.2" style="-webkit-tap-highlight-color: rgba(0, 0, 0, 0); opacity: 0.2;"></rect><rect x="397" y="325" width="567" height="149" r="5" rx="5" ry="5" fill="#5e5e5e" stroke="none" transform="matrix(1,0,0,1,-283.5,-74.5)" stroke-width="0" opacity="0.2" style="-webkit-tap-highlight-color: rgba(0, 0, 0, 0); opacity: 0.2;"></rect><rect x="127" y="183" width="93" height="82" r="5" rx="5" ry="5" fill="#5e5e5e" stroke="none" transform="matrix(1,0,0,1,-46.5,-41)" stroke-width="0" opacity="0.2" style="-webkit-tap-highlight-color: rgba(0, 0, 0, 0); opacity: 0.2;"></rect><rect x="318" y="187" width="458" height="215" r="5" rx="5" ry="5" fill="#5e5e5e" stroke="none" transform="matrix(1,0,0,1,-229,-107.5)" stroke-width="0" opacity="0.2" style="-webkit-tap-highlight-color: rgba(0, 0, 0, 0); opacity: 0.2;"></rect><rect x="298" y="205" width="38" height="171" r="5" rx="5" ry="5" fill="#5e5e5e" stroke="none" transform="matrix(1,0,0,1,-19,-85.5)" stroke-width="0" opacity="0.2" style="-webkit-tap-highlight-color: rgba(0, 0, 0, 0); opacity: 0.2;"></rect><rect x="372" y="357" width="724" height="196" r="5" rx="5" ry="5" fill="#5e5e5e" stroke="none" transform="matrix(1,0,0,1,-362,-98)" stroke-width="0" opacity="0.2" style="-webkit-tap-highlight-color: rgba(0, 0, 0, 0); opacity: 0.2;"></rect><rect x="297" y="265" width="813" height="122" r="5" rx="5" ry="5" fill="#5e5e5e" stroke="none" transform="matrix(1,0,0,1,-406.5,-61)" stroke-width="0" opacity="0.2" style="-webkit-tap-highlight-color: rgba(0, 0, 0, 0); opacity: 0.2;"></rect><rect x="142" y="344" width="358" height="83" r="5" rx="5" ry="5" fill="#5e5e5e" stroke="none" transform="matrix(1,0,0,1,-179,-41.5)" stroke-width="0" opacity="0.2" style="-webkit-tap-highlight-color: rgba(0, 0, 0, 0); opacity: 0.2;"></rect><rect x="517" y="154" width="415" height="209" r="5" rx="5" ry="5" fill="#5e5e5e" stroke="none" transform="matrix(1,0,0,1,-207.5,-104.5)" stroke-width="0" opacity="0.2" style="-webkit-tap-highlight-color: rgba(0, 0, 0, 0); opacity: 0.2;"></rect><rect x="254" y="334" width="22" height="319" r="5" rx="5" ry="5" fill="#5e5e5e" stroke="none" transform="matrix(1,0,0,1,-11,-159.5)" stroke-width="0" opacity="0.2" style="-webkit-tap-highlight-color: rgba(0, 0, 0, 0); opacity: 0.2;"></rect><rect x="304" y="268" width="125" height="92" r="5" rx="5" ry="5" fill="#5e5e5e" stroke="none" transform="matrix(1,0,0,1,-62.5,-46)" stroke-width="0" opacity="0.2" style="-webkit-tap-highlight-color: rgba(0, 0, 0, 0); opacity: 0.2;"></rect><rect x="335" y="257" width="220" height="164" r="5" rx="5" ry="5" fill="#5e5e5e" stroke="none" transform="matrix(1,0,0,1,-110,-82)" stroke-width="0" opacity="0.2" style="-webkit-tap-highlight-color: rgba(0, 0, 0, 0); opacity: 0.2;"></rect><rect x="340" y="204" width="325" height="147" r="5" rx="5" ry="5" fill="#5e5e5e" stroke="none" transform="matrix(1,0,0,1,-162.5,-73.5)" stroke-width="0" opacity="0.2" style="-webkit-tap-highlight-color: rgba(0, 0, 0, 0); opacity: 0.2;"></rect><rect x="273" y="184" width="478" height="51" r="5" rx="5" ry="5" fill="#5e5e5e" stroke="none" transform="matrix(1,0,0,1,-239,-25.5)" stroke-width="0" opacity="0.2" style="-webkit-tap-highlight-color: rgba(0, 0, 0, 0); opacity: 0.2;"></rect></svg>